<mxfile host="app.diagrams.net" modified="2021-09-29T15:05:48.204Z" agent="5.0 (Windows NT 10.0; Win64; x64) AppleWebKit/537.36 (KHTML, like Gecko) Chrome/94.0.4606.61 Safari/537.36" etag="z1T03Ln2Z0TckqVlMKqm" version="15.3.8" type="github">
  <diagram id="LF1qnbBJ19rpzm8wgAc9" name="Page-1">
    <mxGraphModel dx="1753" dy="654" grid="0" gridSize="10" guides="1" tooltips="1" connect="1" arrows="1" fold="1" page="1" pageScale="1" pageWidth="827" pageHeight="1169" background="#ffffff" math="0" shadow="1">
      <root>
        <mxCell id="0" />
        <mxCell id="1" parent="0" />
        <mxCell id="EBm-fxT-eYqhJVdTLnN8-1" value="" style="shape=mxgraph.signs.sports.cycling;html=1;pointerEvents=1;fillColor=#6a00ff;strokeColor=#3700CC;verticalLabelPosition=bottom;verticalAlign=top;align=center;fontColor=#ffffff;" vertex="1" parent="1">
          <mxGeometry x="306" y="55" width="214" height="166" as="geometry" />
        </mxCell>
        <mxCell id="EBm-fxT-eYqhJVdTLnN8-2" value="" style="shape=mxgraph.signs.sports.indoor_swimming;html=1;pointerEvents=1;fillColor=#e51400;strokeColor=#B20000;verticalLabelPosition=bottom;verticalAlign=top;align=center;fontColor=#ffffff;" vertex="1" parent="1">
          <mxGeometry x="309" y="221" width="396" height="149" as="geometry" />
        </mxCell>
        <mxCell id="EBm-fxT-eYqhJVdTLnN8-3" value="" style="shape=mxgraph.signs.sports.running;html=1;pointerEvents=1;fillColor=#008a00;strokeColor=#005700;verticalLabelPosition=bottom;verticalAlign=top;align=center;rotation=0;fontColor=#ffffff;" vertex="1" parent="1">
          <mxGeometry x="520" y="54" width="186" height="165.5" as="geometry" />
        </mxCell>
        <mxCell id="EBm-fxT-eYqhJVdTLnN8-5" value="&lt;font style=&quot;font-size: 60px&quot;&gt;Israfil Hossan&lt;/font&gt;" style="text;html=1;align=center;verticalAlign=middle;resizable=0;points=[];autosize=1;strokeColor=#b85450;fillColor=#f8cecc;rotation=0;fontSize=60;gradientDirection=radial;" vertex="1" parent="1">
          <mxGeometry x="319" y="370" width="373" height="76" as="geometry" />
        </mxCell>
      </root>
    </mxGraphModel>
  </diagram>
</mxfile>
